{
  "accessors": [
    {
      "bufferView": 2,
      "componentType": 5126,
      "count": 167,
      "max": [
        0.54297125339508057,
        3.5632190704345703,
        0.54369986057281494
      ],
      "min": [
        -0.54297125339508057,
        2.4772768020629883,
        -0.54224252700805664
      ],
      "type": "VEC3"
    },
    {
      "bufferView": 2,
      "byteOffset": 2004,
      "componentType": 5126,
      "count": 167,
      "max": [
        1,
        1,
        1
      ],
      "min": [
        -1,
        -1,
        -1
      ],
      "type": "VEC3"
    },
    {
      "bufferView": 3,
      "componentType": 5126,
      "count": 167,
      "max": [
        1,
        0.13150452077388763,
        1,
        1
      ],
      "min": [
        -1,
        -0.13150516152381897,
        -1,
        1
      ],
      "type": "VEC4"
    },
    {
      "bufferView": 1,
      "componentType": 5126,
      "count": 167,
      "max": [
        0.99999988079071045,
        1
      ],
      "min": [
        0,
        0
      ],
      "type": "VEC2"
    },
    {
      "bufferView": 0,
      "componentType": 5125,
      "count": 792,
      "max": [
        166
      ],
      "min": [
        0
      ],
      "type": "SCALAR"
    },
    {
      "bufferView": 2,
      "byteOffset": 4008,
      "componentType": 5126,
      "count": 164,
      "max": [
        0.56048583984375,
        2.5394513607025146,
        0.56048583984375
      ],
      "min": [
        -0.56048595905303955,
        2.2240645885467529,
        -0.5604860782623291
      ],
      "type": "VEC3"
    },
    {
      "bufferView": 2,
      "byteOffset": 5976,
      "componentType": 5126,
      "count": 164,
      "max": [
        1,
        1,
        1
      ],
      "min": [
        -1,
        -1,
        -1
      ],
      "type": "VEC3"
    },
    {
      "bufferView": 3,
      "byteOffset": 2672,
      "componentType": 5126,
      "count": 164,
      "max": [
        1,
        0.43923476338386536,
        1,
        1
      ],
      "min": [
        -1,
        -0.43923494219779968,
        -1,
        1
      ],
      "type": "VEC4"
    },
    {
      "bufferView": 1,
      "byteOffset": 1336,
      "componentType": 5126,
      "count": 164,
      "max": [
        0.65625,
        1
      ],
      "min": [
        0.34374997019767761,
        -7.4505805969238281e-08
      ],
      "type": "VEC2"
    },
    {
      "bufferView": 0,
      "byteOffset": 3168,
      "componentType": 5125,
      "count": 720,
      "max": [
        163
      ],
      "min": [
        0
      ],
      "type": "SCALAR"
    },
    {
      "bufferView": 2,
      "byteOffset": 7944,
      "componentType": 5126,
      "count": 52,
      "max": [
        0.86777842044830322,
        0.33226937055587769,
        0.86777842044830322
      ],
      "min": [
        -0.86777842044830322,
        0.21237051486968994,
        -0.86777842044830322
      ],
      "type": "VEC3"
    },
    {
      "bufferView": 2,
      "byteOffset": 8568,
      "componentType": 5126,
      "count": 52,
      "max": [
        0.31474804878234863,
        1,
        0.31474807858467102
      ],
      "min": [
        -0.31474775075912476,
        -1,
        -0.31474772095680237
      ],
      "type": "VEC3"
    },
    {
      "bufferView": 3,
      "byteOffset": 5296,
      "componentType": 5126,
      "count": 52,
      "max": [
        1,
        0.31446856260299683,
        0.99642574787139893,
        1
      ],
      "min": [
        -0.9964258074760437,
        -0.31446883082389832,
        -0.99642574787139893,
        1
      ],
      "type": "VEC4"
    },
    {
      "bufferView": 1,
      "byteOffset": 2648,
      "componentType": 5126,
      "count": 52,
      "max": [
        0.65625,
        1
      ],
      "min": [
        0.34375,
        0
      ],
      "type": "VEC2"
    },
    {
      "bufferView": 0,
      "byteOffset": 6048,
      "componentType": 5125,
      "count": 144,
      "max": [
        51
      ],
      "min": [
        0
      ],
      "type": "SCALAR"
    },
    {
      "bufferView": 2,
      "byteOffset": 9192,
      "componentType": 5126,
      "count": 164,
      "max": [
        0.96850878000259399,
        0.57938408851623535,
        0.96850883960723877
      ],
      "min": [
        -0.9685090184211731,
        0.31824648380279541,
        -0.96850919723510742
      ],
      "type": "VEC3"
    },
    {
      "bufferView": 2,
      "byteOffset": 11160,
      "componentType": 5126,
      "count": 164,
      "max": [
        1,
        1,
        1
      ],
      "min": [
        -1,
        -1,
        -1
      ],
      "type": "VEC3"
    },
    {
      "bufferView": 3,
      "byteOffset": 6128,
      "componentType": 5126,
      "count": 164,
      "max": [
        1,
        0.4704262912273407,
        1,
        1
      ],
      "min": [
        -1,
        -0.47042641043663025,
        -1,
        1
      ],
      "type": "VEC4"
    },
    {
      "bufferView": 1,
      "byteOffset": 3064,
      "componentType": 5126,
      "count": 164,
      "max": [
        0.65625,
        1
      ],
      "min": [
        0.34374997019767761,
        -7.4505805969238281e-08
      ],
      "type": "VEC2"
    },
    {
      "bufferView": 0,
      "byteOffset": 6624,
      "componentType": 5125,
      "count": 720,
      "max": [
        163
      ],
      "min": [
        0
      ],
      "type": "SCALAR"
    },
    {
      "bufferView": 2,
      "byteOffset": 13128,
      "componentType": 5126,
      "count": 147,
      "max": [
        0.45646721124649048,
        2.3844242095947266,
        0.45646721124649048
      ],
      "min": [
        -0.45646721124649048,
        1.1684143543243408,
        -0.45646733045578003
      ],
      "type": "VEC3"
    },
    {
      "bufferView": 2,
      "byteOffset": 14892,
      "componentType": 5126,
      "count": 147,
      "max": [
        1,
        1,
        1
      ],
      "min": [
        -1,
        -1,
        -1
      ],
      "type": "VEC3"
    },
    {
      "bufferView": 3,
      "byteOffset": 8752,
      "componentType": 5126,
      "count": 147,
      "max": [
        1,
        0.10524889081716537,
        1,
        1
      ],
      "min": [
        -1,
        -0.10524886101484299,
        -1,
        1
      ],
      "type": "VEC4"
    },
    {
      "bufferView": 1,
      "byteOffset": 4376,
      "componentType": 5126,
      "count": 147,
      "max": [
        0.65625,
        1
      ],
      "min": [
        0.34374997019767761,
        -7.4505805969238281e-08
      ],
      "type": "VEC2"
    },
    {
      "bufferView": 0,
      "byteOffset": 9504,
      "componentType": 5125,
      "count": 600,
      "max": [
        146
      ],
      "min": [
        0
      ],
      "type": "SCALAR"
    },
    {
      "bufferView": 2,
      "byteOffset": 16656,
      "componentType": 5126,
      "count": 189,
      "max": [
        0.96611291170120239,
        1.1943244934082031,
        0.96611303091049194
      ],
      "min": [
        -0.96611315011978149,
        0.5264352560043335,
        -0.9661133885383606
      ],
      "type": "VEC3"
    },
    {
      "bufferView": 2,
      "byteOffset": 18924,
      "componentType": 5126,
      "count": 189,
      "max": [
        0.91406536102294922,
        1,
        0.91406542062759399
      ],
      "min": [
        -0.91406553983688354,
        -1,
        -0.91406542062759399
      ],
      "type": "VEC3"
    },
    {
      "bufferView": 3,
      "byteOffset": 11104,
      "componentType": 5126,
      "count": 189,
      "max": [
        1,
        0.078676432371139526,
        0.99999880790710449,
        1
      ],
      "min": [
        -0.99999880790710449,
        -0.078676588833332062,
        -0.99999880790710449,
        1
      ],
      "type": "VEC4"
    },
    {
      "bufferView": 1,
      "byteOffset": 5552,
      "componentType": 5126,
      "count": 189,
      "max": [
        0.65625,
        1
      ],
      "min": [
        0.34374997019767761,
        -7.4505805969238281e-08
      ],
      "type": "VEC2"
    },
    {
      "bufferView": 0,
      "byteOffset": 11904,
      "componentType": 5125,
      "count": 840,
      "max": [
        188
      ],
      "min": [
        0
      ],
      "type": "SCALAR"
    }
  ],
  "asset": {
    "extras": {
      "author": "Rana (https://sketchfab.com/pertrosfoliea)",
      "license": "CC-BY-4.0 (http://creativecommons.org/licenses/by/4.0/)",
      "source": "https://sketchfab.com/3d-models/pawn-f33646a813e34713a5972a9ea782e05d",
      "title": "Pawn"
    },
    "generator": "Sketchfab-6.33.0",
    "version": "2.0"
  },
  "bufferViews": [
    {
      "buffer": 0,
      "byteLength": 15264,
      "byteOffset": 0,
      "name": "floatBufferViews",
      "target": 34963
    },
    {
      "buffer": 0,
      "byteLength": 7064,
      "byteOffset": 15264,
      "byteStride": 8,
      "name": "floatBufferViews",
      "target": 34962
    },
    {
      "buffer": 0,
      "byteLength": 21192,
      "byteOffset": 22328,
      "byteStride": 12,
      "name": "floatBufferViews",
      "target": 34962
    },
    {
      "buffer": 0,
      "byteLength": 14128,
      "byteOffset": 43520,
      "byteStride": 16,
      "name": "floatBufferViews",
      "target": 34962
    }
  ],
  "buffers": [
    {
      "byteLength": 57648,
      "uri": "scene.bin"
    }
  ],
  "materials": [
    {
      "doubleSided": true,
      "emissiveFactor": [
        0,
        0,
        0
      ],
      "name": "lambert2",
      "pbrMetallicRoughness": {
        "baseColorFactor": [
          1,
          0.73129999999999995,
          0.23100000000000001,
          1
        ],
        "metallicFactor": 0,
        "roughnessFactor": 0.59999999999999998
      }
    },
    {
      "doubleSided": true,
      "emissiveFactor": [
        0,
        0,
        0
      ],
      "name": "lambert1",
      "pbrMetallicRoughness": {
        "baseColorFactor": [
          0.0304,
          0.2218,
          0.034099999999999998,
          1
        ],
        "metallicFactor": 0,
        "roughnessFactor": 0.59999999999999998
      }
    }
  ],
  "meshes": [
    {
      "name": "pSphere1_lambert2_0",
      "primitives": [
        {
          "attributes": {
            "NORMAL": 1,
            "POSITION": 0,
            "TANGENT": 2,
            "TEXCOORD_0": 3
          },
          "indices": 4,
          "material": 0,
          "mode": 4
        }
      ]
    },
    {
      "name": "pCylinder1_lambert2_0",
      "primitives": [
        {
          "attributes": {
            "NORMAL": 6,
            "POSITION": 5,
            "TANGENT": 7,
            "TEXCOORD_0": 8
          },
          "indices": 9,
          "material": 0,
          "mode": 4
        }
      ]
    },
    {
      "name": "pCylinder2_lambert1_0",
      "primitives": [
        {
          "attributes": {
            "NORMAL": 11,
            "POSITION": 10,
            "TANGENT": 12,
            "TEXCOORD_0": 13
          },
          "indices": 14,
          "material": 1,
          "mode": 4
        }
      ]
    },
    {
      "name": "pCylinder3_lambert2_0",
      "primitives": [
        {
          "attributes": {
            "NORMAL": 16,
            "POSITION": 15,
            "TANGENT": 17,
            "TEXCOORD_0": 18
          },
          "indices": 19,
          "material": 0,
          "mode": 4
        }
      ]
    },
    {
      "name": "pCylinder4_lambert2_0",
      "primitives": [
        {
          "attributes": {
            "NORMAL": 21,
            "POSITION": 20,
            "TANGENT": 22,
            "TEXCOORD_0": 23
          },
          "indices": 24,
          "material": 0,
          "mode": 4
        }
      ]
    },
    {
      "name": "pCylinder5_lambert2_0",
      "primitives": [
        {
          "attributes": {
            "NORMAL": 26,
            "POSITION": 25,
            "TANGENT": 27,
            "TEXCOORD_0": 28
          },
          "indices": 29,
          "material": 0,
          "mode": 4
        }
      ]
    }
  ],
  "nodes": [
    {
      "children": [
        1
      ],
      "name": "RootNode (gltf orientation matrix)",
      "rotation": [
        -0.70710678118654746,
        -0,
        -0,
        0.70710678118654757
      ]
    },
    {
      "children": [
        2
      ],
      "name": "RootNode (model correction matrix)"
    },
    {
      "children": [
        3
      ],
      "matrix": [
        1,
        0,
        0,
        0,
        0,
        0,
        1,
        0,
        0,
        -1,
        0,
        0,
        0,
        0,
        0,
        1
      ],
      "name": "180faad9af8a4853913347527e003c55.fbx"
    },
    {
      "children": [
        4,
        6,
        8,
        10,
        12,
        14
      ],
      "name": "RootNode"
    },
    {
      "children": [
        5
      ],
      "name": "pSphere1"
    },
    {
      "mesh": 0,
      "name": "pSphere1_lambert2_0"
    },
    {
      "children": [
        7
      ],
      "name": "pCylinder1"
    },
    {
      "mesh": 1,
      "name": "pCylinder1_lambert2_0"
    },
    {
      "children": [
        9
      ],
      "name": "pCylinder2"
    },
    {
      "mesh": 2,
      "name": "pCylinder2_lambert1_0"
    },
    {
      "children": [
        11
      ],
      "name": "pCylinder3"
    },
    {
      "mesh": 3,
      "name": "pCylinder3_lambert2_0"
    },
    {
      "children": [
        13
      ],
      "name": "pCylinder4"
    },
    {
      "mesh": 4,
      "name": "pCylinder4_lambert2_0"
    },
    {
      "children": [
        15
      ],
      "name": "pCylinder5"
    },
    {
      "mesh": 5,
      "name": "pCylinder5_lambert2_0"
    }
  ],
  "scene": 0,
  "scenes": [
    {
      "name": "OSG_Scene",
      "nodes": [
        0
      ]
    }
  ]
}

